<svg version="1.1" xmlns="http://www.w3.org/2000/svg" style="display: block;" viewBox="0 0 2048 2048" width="1024" height="1024" preserveAspectRatio="none">
<path transform="translate(0,0)" fill="rgb(67,101,81)" d="M 1229.92 596.318 C 1246.15 595.104 1261.2 598.86 1273.58 610.076 C 1285.04 620.466 1287.76 634.926 1287.8 649.716 C 1287.9 695.626 1287.82 741.548 1287.79 787.463 L 1287.77 1047.87 L 1287.75 1191.51 C 1287.74 1216.45 1288.41 1241.57 1286.72 1266.44 C 1283.88 1308.08 1230.04 1322.67 1202.35 1294.45 C 1184.16 1275.91 1187.8 1248.12 1188.01 1224.14 C 1185.51 1227.55 1183.41 1229.71 1180.45 1232.72 C 1129.96 1284.47 1060.76 1313.71 988.459 1313.86 C 845.371 1314.99 736.886 1210.69 728.606 1067.86 C 727.923 1056.09 728.002 1044.3 727.917 1032.51 L 727.867 904.215 C 727.863 882.401 727.343 860.198 728.348 838.45 C 729.332 817.155 741.744 800.715 762.433 794.588 C 775.774 790.518 790.205 792.143 802.307 799.078 C 832.705 816.849 825.879 854.083 825.807 884.325 L 825.853 982.501 C 825.849 1017.76 823.682 1063.12 832.553 1096.01 C 843.945 1139.76 872.772 1176.93 912.312 1198.84 C 985.282 1240.02 1075.79 1215.5 1128.19 1153.09 C 1195.67 1072.71 1186.04 981.18 1186 884.237 L 1185.94 705.288 C 1185.8 658.75 1173.83 610.379 1229.92 596.318 z"/>
<path transform="translate(0,0)" fill="rgb(67,101,81)" d="M 1370.75 1198.51 C 1399.71 1193.08 1427.54 1212.31 1432.71 1241.31 C 1437.87 1270.32 1418.39 1297.97 1389.34 1302.88 C 1360.66 1307.72 1333.44 1288.54 1328.33 1259.9 C 1323.23 1231.27 1342.16 1203.87 1370.75 1198.51 z"/>
</svg>